<svg width="181" height="196" viewBox="0 0 181 196" fill="none" xmlns="http://www.w3.org/2000/svg">
<g clip-path="url(#clip0_1833_3564)">
<path d="M94.1114 168.171C93.1808 168.352 92.8824 168.574 92.5104 168.572C68.0186 162.957 48.4268 150.024 35.4517 128.216C32.1616 122.717 30.3622 116.481 29.9402 109.916C28.9137 95.8543 36.8088 83.3327 49.8468 78.1843C56.6267 75.4624 63.5878 74.0464 70.8715 75.8759C72.3851 78.9788 73.7869 82.1184 75.4503 84.9239C78.1859 89.4876 82.0797 92.6781 87.4697 93.6397C91.4467 94.4445 94.7985 93.3443 95.9977 90.9647C97.5715 87.8414 96.5417 84.7039 94.2433 82.6033C91.0552 79.6777 87.4938 77.1228 83.8943 74.8287C81.5563 73.3618 78.7701 72.4145 76.2073 71.3937C73.9505 58.1081 84.1398 48.8055 100.169 49.378C101.205 51.0242 102.277 52.7824 103.424 54.3919C107.829 60.2697 113.618 63.9553 121.094 64.1081C123.958 64.1611 126.861 63.5804 128.323 60.4938C129.411 58.1509 128.381 55.0133 125.563 52.4625C121.04 48.4856 115.543 46.4421 109.857 44.9569C107.85 44.4985 105.843 44.0401 103.873 43.6937C99.671 23.3506 112.651 3.69818 132.432 5.89446C131.842 4.47442 131.549 3.20514 130.882 2.6795C130.065 2.07847 128.689 2.03365 127.61 2.13959C117.525 3.46388 109.066 7.48156 104.085 16.8127C100.302 23.7642 98.6745 31.2495 98.5705 39.2278C98.5663 40.3463 98.5622 41.4648 98.4463 42.62C98.4831 42.7321 98.2964 42.9175 97.9599 43.4003C96.9175 43.6183 95.6886 44.0217 94.386 44.201C78.6422 46.762 72.1455 53.363 69.816 69.6436C68.3281 69.6355 66.6169 69.7007 64.9805 69.6171C55.4213 69.5275 46.7447 72.1272 38.9864 77.9011C26.3419 87.2648 21.1894 102.486 25.2595 118.28C27.4594 126.867 31.5601 134.458 37.1513 141.312C50.7411 157.829 67.6994 168.772 88.999 172.58C90.0767 172.846 91.2294 172.965 92.3071 173.231C92.4556 173.307 92.6409 173.494 93.1968 174.057C89.6923 176.2 86.0067 177.037 82.3579 177.987C78.8576 179.011 75.172 179.849 71.2997 180.872C72.5912 183.675 74.5232 184.282 76.6432 184.331C79.0984 184.27 81.6272 184.433 83.8985 183.812C90.0053 182.055 96.1871 180.15 102.222 177.797C106.916 175.884 107.41 172.867 104 169.642C96.6977 162.853 89.2834 156.101 81.8692 149.349C80.6457 148.262 79.2724 147.471 77.5284 146.306C76.2148 149.468 77.6971 150.967 79.0309 152.391C84.1454 157.415 88.9247 162.55 94.1114 168.171ZM123.868 58.2324C115.828 59.7543 109.405 56.4008 106.79 49.5634C113.033 51.2381 118.942 52.65 123.868 58.2324ZM91.8055 87.9962C84.6987 88.5912 80.0991 85.1358 78.5259 78.0804C83.9484 80.2726 88.7388 82.424 91.8055 87.9962Z" fill="url(#paint0_linear_1833_3564)"/>
</g>
<defs>
<linearGradient id="paint0_linear_1833_3564" x1="65.5179" y1="21.6811" x2="115.416" y2="173.701" gradientUnits="userSpaceOnUse">
<stop stop-color="white" stop-opacity="0"/>
<stop offset="0.991907" stop-color="white"/>
</linearGradient>
<clipPath id="clip0_1833_3564">
<rect width="137" height="160" fill="white" transform="matrix(-0.950127 0.311865 0.311865 0.950127 130.602 0.318359)"/>
</clipPath>
</defs>
</svg>
