<svg width="109" height="183" viewBox="0 0 109 183" fill="none" xmlns="http://www.w3.org/2000/svg">
<path d="M38.5957 166.378C39.5263 166.559 39.8247 166.781 40.1966 166.779C64.6884 161.164 84.2803 148.231 97.2553 126.423C100.545 120.924 102.345 114.688 102.767 108.123C103.793 94.0614 95.8983 81.5397 82.8602 76.3913C76.0803 73.6694 69.1193 72.2534 61.8355 74.083C60.322 77.1859 58.9202 80.3255 57.2567 83.1309C54.5211 87.6946 50.6273 90.8851 45.2374 91.8468C41.2603 92.6515 37.9085 91.5514 36.7094 89.1717C35.1355 86.0484 36.1654 82.9109 38.4637 80.8104C41.6518 77.8847 45.2132 75.3298 48.8127 73.0358C51.1507 71.5689 53.9369 70.6215 56.4997 69.6008C58.7565 56.3151 48.5673 47.0125 32.5376 47.585C31.5022 49.2312 30.43 50.9894 29.2829 52.5989C24.8783 58.4767 19.0893 62.1624 11.6133 62.3152C8.74938 62.3681 5.84586 61.7875 4.38372 58.7009C3.2963 56.3579 4.32616 53.2203 7.14364 50.6696C11.6669 46.6926 17.1644 44.6492 22.85 43.1639C24.8569 42.7055 26.8638 42.2471 28.834 41.9007C33.036 21.5576 20.0557 1.90521 0.275197 4.10149C0.865069 2.68145 1.15792 1.41217 1.82551 0.886527C2.6416 0.285504 4.01772 0.240683 5.09682 0.346625C15.1821 1.67091 23.6407 5.68859 28.6225 15.0197C32.4052 21.9712 34.0325 29.4565 34.1365 37.4348C34.1407 38.5534 34.1448 39.6719 34.2607 40.8271C34.224 40.9391 34.4106 41.1245 34.7472 41.6074C35.7895 41.8254 37.0185 42.2288 38.321 42.408C54.0648 44.969 60.5616 51.5701 62.8911 67.8507C64.3789 67.8425 66.0902 67.9077 67.7265 67.8242C77.2858 67.7345 85.9623 70.3342 93.7207 76.1081C106.365 85.4718 111.518 100.693 107.448 116.487C105.248 125.074 101.147 132.665 95.5557 139.519C81.9659 156.036 65.0076 166.979 43.708 170.787C42.6303 171.053 41.4776 171.172 40.3999 171.439C40.2514 171.514 40.0661 171.701 39.5103 172.264C43.0147 174.407 46.7003 175.244 50.3492 176.194C53.8495 177.219 57.535 178.056 61.4073 179.079C60.1158 181.882 58.1839 182.489 56.0638 182.538C53.6086 182.477 51.0798 182.64 48.8085 182.019C42.7017 180.262 36.52 178.357 30.4854 176.004C25.7915 174.091 25.2967 171.074 28.7068 167.849C36.0093 161.06 43.4236 154.308 50.8379 147.557C52.0613 146.469 53.4347 145.678 55.1786 144.513C56.4922 147.675 55.0099 149.174 53.6761 150.598C48.5617 155.622 43.7823 160.757 38.5957 166.378ZM8.83893 56.4394C16.8791 57.9613 23.3017 54.6078 25.9172 47.7704C19.6744 49.4451 13.7654 50.857 8.83893 56.4394ZM40.9016 86.2033C48.0084 86.7982 52.6079 83.3428 54.1812 76.2874C48.7586 78.4796 43.9682 80.6311 40.9016 86.2033Z" fill="url(#paint0_linear_1833_3567)"/>
<defs>
<linearGradient id="paint0_linear_1833_3567" x1="67.1891" y1="19.8881" x2="17.2908" y2="171.908" gradientUnits="userSpaceOnUse">
<stop stop-color="white" stop-opacity="0"/>
<stop offset="0.991907" stop-color="white"/>
</linearGradient>
</defs>
</svg>
