<svg width="145" height="125" viewBox="0 0 145 125" fill="none" xmlns="http://www.w3.org/2000/svg">
<g clip-path="url(#clip0_1871_3761)">
<path d="M134.937 76.1956C134.87 77.0512 134.992 77.3651 134.9 77.6891C124.074 97.6984 108.041 111.667 85.8562 117.721C80.258 119.263 74.3761 119.327 68.5408 118.111C56.011 115.612 46.9838 105.702 45.64 93.0855C44.9022 86.5141 45.3488 80.0999 48.708 74.1878C51.784 73.6166 54.8651 73.1517 57.7176 72.3779C62.365 71.0932 66.0931 68.4668 68.2364 63.9971C69.9009 60.7221 69.7506 57.5327 67.9622 55.9122C65.6149 53.7852 62.6256 53.9262 60.2352 55.4241C56.909 57.4988 53.8165 59.9887 50.9424 62.5749C49.0959 64.2603 47.5947 66.462 46.0835 68.4512C33.9342 67.2127 28.2733 56.0786 32.6495 42.2337C34.3376 41.7279 36.1325 41.2171 37.8157 40.605C44.0144 38.1817 48.6332 34.0215 50.5744 27.5369C51.3132 25.0514 51.5082 22.3784 49.1659 20.3578C47.3826 18.8437 44.3932 18.9846 41.4841 20.8266C36.9169 23.8123 33.8028 28.1146 31.1307 32.7157C30.2451 34.3558 29.3594 35.9958 28.5805 37.6308C9.79692 36.3854 -4.22854 20.3181 2.47286 3.59326C1.08996 3.76502 -0.0894302 3.71407 -0.709951 4.16953C-1.43222 4.73634 -1.80413 5.92593 -1.97254 6.89284C-3.25466 16.0101 -1.79105 24.3587 5.15401 30.957C10.3107 35.9349 16.4548 39.1615 23.3978 41.1782C24.3737 41.4519 25.3496 41.7255 26.3305 42.1055C26.4373 42.1004 26.554 42.308 26.8944 42.7182C26.8327 43.68 26.8879 44.8495 26.7295 46.029C25.1592 60.3809 29.3535 67.6418 43.0095 73.6041C42.6426 74.9 42.2857 76.4085 41.8171 77.8158C39.4272 86.1329 39.5997 94.3292 42.7665 102.491C47.8871 115.781 59.9352 123.951 74.7134 124.213C82.7456 124.367 90.3673 122.622 97.7053 119.399C115.417 111.532 129.075 99.3805 137.551 81.7196C138.045 80.8439 138.427 79.8669 138.921 78.9912C139.023 78.8799 139.231 78.7635 139.857 78.4144C140.881 81.9888 140.721 85.406 140.668 88.8181C140.717 92.1189 140.557 95.5361 140.514 99.1609C143.275 98.711 144.272 97.1723 144.827 95.3347C145.368 93.1782 146.121 91.0117 146.128 88.8803C146.071 83.1293 145.902 77.2769 145.306 71.4447C144.77 66.8883 142.254 65.7283 138.613 67.9244C130.918 72.6558 123.228 77.4936 115.538 82.3313C114.292 83.1359 113.27 84.1431 111.83 85.383C114.274 87.2922 115.942 86.3612 117.509 85.5415C123.134 82.2928 128.773 79.3631 134.937 76.1956ZM46.1135 23.6983C45.4985 31.0793 41.0165 35.8724 34.4123 36.5034C37.3846 31.4619 40.0466 26.6481 46.1135 23.6983ZM64.3558 58.8525C63.1569 65.1956 59.0268 68.3737 52.4842 68.0429C55.7101 63.8419 58.7476 60.1825 64.3558 58.8525Z" fill="white"/>
</g>
<defs>
<clipPath id="clip0_1871_3761">
<rect width="124" height="145" fill="white" transform="matrix(-4.37114e-08 1 1 4.37114e-08 0 0.361328)"/>
</clipPath>
</defs>
</svg>
