<svg width="680" height="187" viewBox="0 0 680 187" fill="none" xmlns="http://www.w3.org/2000/svg">
<path d="M606.446 35.1372C613.39 24.022 620.623 13.1715 628.025 2.36133" stroke="white" stroke-width="4" stroke-miterlimit="1.5" stroke-linecap="round" stroke-linejoin="round"/>
<path d="M624.279 58.1917C635.901 48.9491 648.886 41.8024 661.329 33.7969" stroke="white" stroke-width="4" stroke-miterlimit="1.5" stroke-linecap="round" stroke-linejoin="round"/>
<path d="M633.069 85.3267C645.321 83.1293 658.155 82.201 670.448 84.2143" stroke="white" stroke-width="4" stroke-miterlimit="1.5" stroke-linecap="round" stroke-linejoin="round"/>
<path d="M73.5537 152.085C66.6098 163.201 59.3767 174.051 51.9748 184.861" stroke="white" stroke-width="4" stroke-miterlimit="1.5" stroke-linecap="round" stroke-linejoin="round"/>
<path d="M55.7207 129.031C44.0987 138.274 31.1138 145.42 18.6714 153.426" stroke="white" stroke-width="4" stroke-miterlimit="1.5" stroke-linecap="round" stroke-linejoin="round"/>
<path d="M46.9307 101.896C34.6788 104.093 21.8449 105.022 9.55174 103.008" stroke="white" stroke-width="4" stroke-miterlimit="1.5" stroke-linecap="round" stroke-linejoin="round"/>
<rect x="69" y="43.8613" width="528" height="92" rx="46" fill="white"/>
<path d="M137.136 101.861V62.6613H130.92V79.7413H110.2V62.6613H103.928V101.861H110.2V85.5653H130.92V101.861H137.136ZM157.791 73.6933C153.535 73.6933 150.119 75.0933 147.487 77.7813C144.855 80.5253 143.567 83.9413 143.567 88.0853C143.567 92.2293 144.855 95.7013 147.487 98.3893C150.063 101.077 153.535 102.421 157.791 102.421C162.047 102.421 165.519 101.077 168.151 98.3893C170.783 95.7013 172.127 92.2293 172.127 88.0853C172.127 83.9973 170.783 80.5813 168.095 77.8373C165.407 75.0933 161.991 73.6933 157.791 73.6933ZM157.791 79.0133C160.255 79.0133 162.271 79.9093 163.895 81.7013C165.463 83.4933 166.303 85.6213 166.303 88.0853C166.303 90.6613 165.519 92.7893 163.951 94.4693C162.383 96.2053 160.367 97.0453 157.791 97.0453C155.215 97.0453 153.143 96.2053 151.631 94.4693C150.063 92.7893 149.335 90.6613 149.335 88.0853C149.335 85.5653 150.063 83.4373 151.631 81.6453C153.199 79.9093 155.215 79.0133 157.791 79.0133ZM194.71 74.1973L188.102 95.9253L181.27 74.1973H174.774L184.518 101.973H191.238L194.486 92.7893L197.23 83.1573L199.918 92.7893L203.166 101.973H209.886L219.574 74.1973H213.134L206.302 95.9253L199.694 74.1973H194.71ZM290.917 62.6613H283.917L274.173 92.8453L263.813 62.6613H259.781L249.645 92.8453L239.677 62.6613H232.677L246.901 101.917H252.389L257.541 88.1413L261.853 74.9253L266.165 88.0853L271.373 101.917H276.917L290.917 62.6613ZM314.803 78.6213C313.907 77.1093 312.619 75.8773 310.939 74.9813C309.203 74.0853 307.355 73.6373 305.395 73.6373C301.251 73.6373 297.835 74.9253 295.147 77.5013C292.459 80.0773 291.115 83.5493 291.115 88.0293C291.115 92.6213 292.403 96.2053 295.091 98.7813C297.723 101.357 301.139 102.645 305.283 102.589C307.131 102.589 308.979 102.141 310.771 101.245C312.563 100.349 313.907 99.0613 314.803 97.3813L315.083 101.861H320.571V74.2533H314.971L314.803 78.6213ZM305.843 78.9013C307.467 78.9013 308.923 79.2373 310.211 79.9093C311.499 80.5813 312.451 81.4773 313.123 82.5413C313.795 83.6613 314.243 84.8373 314.579 86.1253C314.915 87.4693 314.915 88.7573 314.579 90.0453C314.243 91.3333 313.795 92.5093 313.123 93.5733C312.451 94.6933 311.499 95.5333 310.211 96.2053C308.923 96.8773 307.467 97.2133 305.843 97.2133C303.267 97.2133 301.139 96.3733 299.459 94.6933C297.723 93.0133 296.883 90.8293 296.883 88.0293C296.883 85.2853 297.723 83.1013 299.459 81.4213C301.139 79.7413 303.267 78.9013 305.843 78.9013ZM334.165 74.1413V101.861H328.397V74.1413H334.165ZM327.725 66.1333C327.725 67.6453 328.285 68.7093 329.517 69.3253C330.693 69.9413 331.869 69.9413 333.101 69.3253C334.277 68.7093 334.893 67.6453 334.893 66.1333C334.893 64.6773 334.277 63.6133 333.101 62.9973C331.869 62.4373 330.693 62.4373 329.517 62.9973C328.285 63.6133 327.725 64.6773 327.725 66.1333ZM362.566 74.1973L358.422 84.2213L354.054 95.9253L349.182 83.1013L345.486 74.1973H339.102L350.862 101.973H357.19L368.894 74.1973H362.566ZM439.722 62.6613H432.722L422.978 92.8453L412.618 62.6613H408.586L398.45 92.8453L388.482 62.6613H381.482L395.706 101.917H401.194L406.346 88.1413L410.658 74.9253L414.97 88.0853L420.178 101.917H425.722L439.722 62.6613ZM454.088 73.6933C449.832 73.6933 446.416 75.0933 443.784 77.7813C441.152 80.5253 439.864 83.9413 439.864 88.0853C439.864 92.2293 441.152 95.7013 443.784 98.3893C446.36 101.077 449.832 102.421 454.088 102.421C458.344 102.421 461.816 101.077 464.448 98.3893C467.08 95.7013 468.424 92.2293 468.424 88.0853C468.424 83.9973 467.08 80.5813 464.392 77.8373C461.704 75.0933 458.288 73.6933 454.088 73.6933ZM454.088 79.0133C456.552 79.0133 458.568 79.9093 460.192 81.7013C461.76 83.4933 462.6 85.6213 462.6 88.0853C462.6 90.6613 461.816 92.7893 460.248 94.4693C458.68 96.2053 456.664 97.0453 454.088 97.0453C451.512 97.0453 449.44 96.2053 447.928 94.4693C446.36 92.7893 445.632 90.6613 445.632 88.0853C445.632 85.5653 446.36 83.4373 447.928 81.6453C449.496 79.9093 451.512 79.0133 454.088 79.0133ZM474.522 74.2533V101.861H480.29V86.9093C480.29 84.5013 480.962 82.6533 482.418 81.3093C483.818 80.0213 485.61 79.3493 487.738 79.3493C489.586 79.3493 491.21 79.9093 492.61 81.0293L495.242 75.9893C493.45 74.4213 491.21 73.6373 488.41 73.6373C484.602 73.6373 481.858 75.0933 480.29 77.8933L479.898 74.2533H474.522ZM499.186 62.7173V101.861H505.01V89.0933L516.826 101.861H523.882V101.469L510.33 87.2453L522.258 74.5893V74.2533H515.258L505.01 85.5653V62.7173H499.186ZM548.347 77.2213C545.547 74.7573 542.019 73.5253 537.707 73.5253C534.683 73.5253 532.051 74.2533 529.699 75.6533C527.347 77.0533 526.227 79.1253 526.227 81.9253C526.227 86.7413 529.979 89.5413 537.483 90.2133C539.611 90.4373 541.235 90.8293 542.299 91.3893C543.363 91.9493 543.867 92.8453 543.867 94.0213C543.811 95.2533 543.195 96.1493 542.075 96.7093C540.899 97.3253 539.555 97.6053 537.987 97.6053C533.899 97.5493 530.651 96.2053 528.299 93.5173L525.275 97.6053C528.299 101.021 532.499 102.701 537.875 102.701C541.403 102.701 544.259 101.917 546.387 100.293C548.515 98.7253 549.579 96.5973 549.635 93.9653C549.635 92.2853 549.243 90.8853 548.571 89.7093C547.899 88.5893 546.891 87.6933 545.603 87.1333C544.315 86.5733 543.083 86.1253 541.963 85.9013C540.843 85.6773 539.499 85.4533 537.931 85.2853C533.955 84.9493 531.939 83.7733 531.939 81.7573C531.939 80.6933 532.443 79.8533 533.507 79.2933C534.571 78.7333 536.027 78.4533 537.819 78.4533C540.787 78.4533 543.195 79.3493 545.099 81.0293L548.347 77.2213ZM556.076 62.5493V92.0613H562.124V62.5493H556.076ZM555.348 98.4453C555.348 100.013 555.964 101.077 557.196 101.693C558.428 102.365 559.66 102.365 560.892 101.693C562.124 101.077 562.74 100.013 562.74 98.4453C562.74 96.9333 562.124 95.8693 560.892 95.1973C559.66 94.5813 558.428 94.5813 557.196 95.1973C555.964 95.8693 555.348 96.9333 555.348 98.4453Z" fill="url(#paint0_linear_1871_3771)"/>
<defs>
<linearGradient id="paint0_linear_1871_3771" x1="333" y1="53.8613" x2="333" y2="125.861" gradientUnits="userSpaceOnUse">
<stop stop-color="#091E65"/>
<stop offset="1" stop-color="#009AF5"/>
</linearGradient>
</defs>
</svg>
