<svg width="30" height="40" viewBox="0 0 30 40" fill="none" xmlns="http://www.w3.org/2000/svg">
<path d="M15 20.9251C18.1066 20.9251 20.625 18.4307 20.625 15.3537C20.625 12.2766 18.1066 9.78223 15 9.78223C11.8934 9.78223 9.375 12.2766 9.375 15.3537C9.375 18.4307 11.8934 20.9251 15 20.9251Z" stroke="url(#paint0_linear_1435_2634)" stroke-width="1.5" stroke-linecap="round" stroke-linejoin="round"/>
<path d="M29.25 15.3537C29.25 17.9784 28.364 20.7606 26.9867 23.489C25.6122 26.2118 23.7713 28.8361 21.9165 31.1325C20.0635 33.4267 18.2085 35.3791 16.816 36.7584C16.1202 37.4475 15.541 37.9925 15.1368 38.3642C15.0887 38.4085 15.0431 38.4503 15 38.4896C14.9569 38.4503 14.9113 38.4085 14.8632 38.3642C14.459 37.9925 13.8798 37.4475 13.184 36.7584C11.7915 35.3791 9.9365 33.4267 8.08346 31.1325C6.22872 28.8361 4.3878 26.2118 3.01328 23.489C1.63597 20.7606 0.75 17.9784 0.75 15.3537C0.75 7.56931 7.12316 1.24658 15 1.24658C22.8768 1.24658 29.25 7.56931 29.25 15.3537Z" stroke="url(#paint1_linear_1435_2634)" stroke-width="1.5"/>
<defs>
<linearGradient id="paint0_linear_1435_2634" x1="19.2033" y1="11.7414" x2="10.806" y2="19.2293" gradientUnits="userSpaceOnUse">
<stop stop-color="white"/>
<stop offset="1" stop-color="white" stop-opacity="0.45"/>
</linearGradient>
<linearGradient id="paint1_linear_1435_2634" x1="26.2088" y1="7.35373" x2="-1.29449" y2="26.0393" gradientUnits="userSpaceOnUse">
<stop stop-color="white"/>
<stop offset="1" stop-color="white" stop-opacity="0.45"/>
</linearGradient>
</defs>
</svg>
