<svg width="131" height="43" viewBox="0 0 131 43" fill="none" xmlns="http://www.w3.org/2000/svg">
<path d="M1.78347 24.8297L1.78349 24.8297L1.78193 24.8206C1.59668 23.7413 1.5 22.6308 1.5 21.4966C1.5 10.727 10.2304 1.99658 21 1.99658C31.7696 1.99658 40.5 10.727 40.5 21.4966C40.5 22.6308 40.4033 23.7413 40.2181 24.8206C39.788 27.3263 38.8796 29.6686 37.5894 31.751C36.4018 33.668 34.8908 35.3644 33.1326 36.7636C29.8024 39.4139 25.5881 40.9966 21 40.9966C11.3493 40.9966 3.32789 34.1714 1.78347 24.8297Z" fill="#FCFCFC" stroke="url(#paint0_linear_1507_2773)" stroke-width="3"/>
<path d="M58.702 12.2966L65.046 30.5226H67.334L72.04 16.8986L76.772 30.5226H79.034L85.404 12.2966H82.83L77.864 27.3506L72.768 12.2966H71.312L66.268 27.3506L61.25 12.2966H58.702ZM93.774 12.2966L85.61 30.4966H88.08L89.848 26.4926H100.248L102.042 30.4966H104.486L96.322 12.2966H93.774ZM99.364 24.4126H90.732L95.048 14.5846L99.364 24.4126ZM107.34 30.4966H109.602V12.2966H107.34V30.4966ZM112.551 12.2966L120.091 30.5486H122.535L130.049 12.2966H127.553L121.287 27.8446L115.073 12.2966H112.551Z" fill="white"/>
<defs>
<linearGradient id="paint0_linear_1507_2773" x1="36.6923" y1="7.8812" x2="5.07692" y2="35.8043" gradientUnits="userSpaceOnUse">
<stop stop-color="#2A2A72"/>
<stop offset="1" stop-color="#009FFD"/>
</linearGradient>
</defs>
</svg>
